<?xml version="1.0" standalone="no"?>
<!DOCTYPE svg PUBLIC "-//W3C//DTD SVG 20010904//EN"
 "http://www.w3.org/TR/2001/REC-SVG-20010904/DTD/svg10.dtd">
<svg version="1.0" xmlns="http://www.w3.org/2000/svg"
 width="815.000000pt" height="815.000000pt" viewBox="0 0 815.000000 815.000000"
 preserveAspectRatio="xMidYMid meet">
<metadata>
Created by potrace 1.14, written by Peter Selinger 2001-2017
</metadata>
<g transform="translate(0.000000,815.000000) scale(0.100000,-0.100000)"
fill="#000000" stroke="none">
<path d="M3775 8039 c-864 -66 -1675 -407 -2330 -980 -110 -96 -306 -294 -403
-405 -377 -435 -679 -1019 -827 -1597 -88 -347 -119 -601 -119 -987 0 -306 13
-465 60 -717 179 -974 722 -1857 1509 -2453 523 -397 1130 -655 1785 -760 966
-153 1972 61 2790 595 581 378 1060 911 1370 1520 223 439 356 880 416 1380
25 208 25 659 0 870 -86 730 -352 1398 -786 1970 -110 145 -179 225 -324 373
-431 440 -926 758 -1513 970 -504 183 -1088 262 -1628 221z m720 -214 c1245
-141 2341 -891 2921 -2000 574 -1097 578 -2390 10 -3491 -451 -873 -1225
-1536 -2161 -1849 -865 -290 -1814 -254 -2655 100 -717 302 -1320 811 -1735
1465 -94 149 -254 461 -314 615 -130 330 -211 660 -253 1025 -19 169 -16 629
5 802 58 469 175 860 379 1268 531 1065 1526 1811 2703 2029 93 17 271 39 455
55 95 8 512 -4 645 -19z"/>
<path d="M3751 5958 c-80 -185 -1645 -3747 -1652 -3761 -9 -16 6 -17 293 -15
l302 3 638 1520 c350 836 643 1532 650 1548 12 26 44 -38 748 -1523 l735
-1550 293 0 c287 0 293 0 287 20 -3 10 -430 869 -948 1907 l-942 1888 -193 3
-193 2 -18 -42z"/>
</g>
</svg>
